<svg width="390" height="120" viewBox="0 0 390 120" fill="none" xmlns="http://www.w3.org/2000/svg">
<path d="M284.609 27.852C263.953 27.852 247.211 44.5733 247.211 65.2033C247.211 85.8334 263.953 102.555 284.609 102.555C305.265 102.555 322.008 85.8334 322.008 65.2033C322.008 44.5733 305.265 27.852 284.609 27.852ZM284.609 82.3554C275.121 82.3554 267.436 74.6752 267.436 65.2033C267.436 55.7315 275.126 48.0467 284.609 48.0467C294.093 48.0467 301.783 55.7269 301.783 65.2033C301.783 74.6798 294.093 82.3554 284.609 82.3554ZM224.66 48.5096V71.6417C224.66 78.7307 227.826 81.8971 234.929 81.8971H242.086V101.143H231.671C223.013 101.143 215.883 98.6047 211.061 93.8069C206.243 89.0136 203.692 81.9338 203.692 73.3417V48.5142H190.79V29.268H203.692V18.8704L224.66 10.4113V29.2725H242.082V48.5187H224.66V48.5096ZM182.577 29.2771V68.5989C182.577 87.3502 167.359 102.555 148.579 102.555C129.8 102.555 114.581 87.3548 114.581 68.5989V38.4603L135.406 30.0561V69.1992C135.406 76.4624 141.302 82.3554 148.579 82.3554C155.856 82.3554 161.752 76.4669 161.752 69.1992V37.6813L182.577 29.2771ZM105.565 10.4067V101.139H84.5969V18.8658L105.565 10.4067ZM41.5689 27.8566C32.8055 27.8566 25.3772 30.8122 19.8485 36.4532L16.9533 29.4558L0 36.302V120H20.9634V95.2824C26.4187 100.199 33.48 102.55 41.5689 102.55C51.149 102.55 59.9905 98.6642 66.4644 91.6027C72.8328 84.6557 76.3428 75.3076 76.3428 65.2767C76.3428 44.2937 61.0687 27.8612 41.5689 27.8612M38.3618 82.3599C28.7266 82.3599 20.9129 74.6798 20.9129 65.2079C20.9129 55.7361 28.7266 48.0513 38.3618 48.0513C47.997 48.0513 55.8106 55.7315 55.8106 65.2079C55.8106 74.6844 47.997 82.3599 38.3618 82.3599ZM373.515 50.0401H364.646L351.946 19.3653H339.213V35.193C339.213 38.6024 340.861 40.7194 344.738 40.7194H350.367V50.0401H343.448C334.056 50.0401 329.028 44.7336 329.028 35.8666V19.3653H322.003V10.4479H329.028V4.11044L339.213 0V10.4479H359.255L369.078 36.0683L378.993 10.2051H390L373.51 50.0401H373.515Z" fill="#FFF200"/>
</svg>
